<svg width="36" height="36" viewBox="0 0 36 36" fill="none" xmlns="http://www.w3.org/2000/svg">
<mask id="mask0" mask-type="alpha" maskUnits="userSpaceOnUse" x="0" y="0" width="36" height="36">
<rect width="36" height="36" fill="white"/>
</mask>
<g mask="url(#mask0)">
<path d="M27.6105 21.024C28.1805 19.6275 28.5 18.102 28.5 16.5C28.5 9.873 23.127 4.5 16.5 4.5C9.873 4.5 4.5 9.873 4.5 16.5C4.5 23.127 9.873 28.5 16.5 28.5C18.102 28.5 19.629 28.1805 21.027 27.6105" stroke="#2A384A" stroke-width="1.5" stroke-linecap="round" stroke-linejoin="round"/>
<path d="M16.5 12.198V11.2425" stroke="#1DA1F2" stroke-width="1.5" stroke-linecap="round" stroke-linejoin="round"/>
<path d="M16.5 20.7885V21.7425" stroke="#1DA1F2" stroke-width="1.5" stroke-linecap="round" stroke-linejoin="round"/>
<path d="M14.0145 19.764C14.385 20.3715 15.018 20.79 15.7845 20.79H16.5H17.3535C18.465 20.79 19.3635 19.89 19.3635 18.78C19.3635 17.8575 18.735 17.055 17.841 16.8285L15.156 16.1535C14.2635 15.93 13.635 15.1275 13.635 14.205C13.635 13.0935 14.535 12.195 15.645 12.195H16.5H17.2155C17.979 12.195 18.612 12.6135 18.981 13.2195" stroke="#1DA1F2" stroke-width="1.5" stroke-linecap="round" stroke-linejoin="round"/>
<path d="M33 27C33 30.3135 30.3135 33 27 33C23.6865 33 21 30.3135 21 27C21 23.6865 23.6865 21 27 21C30.3135 21 33 23.6865 33 27Z" stroke="#1DA1F2" stroke-width="1.5" stroke-linecap="round" stroke-linejoin="round"/>
<path d="M25.02 27.1965H29.04" stroke="#1DA1F2" stroke-width="1.5" stroke-linecap="round" stroke-linejoin="round"/>
<path d="M27.0286 29.2065V25.1865" stroke="#1DA1F2" stroke-width="1.5" stroke-linecap="round" stroke-linejoin="round"/>
</g>
</svg>
