<svg width="18" height="24" viewBox="0 0 18 24" fill="none" xmlns="http://www.w3.org/2000/svg">
<path fill-rule="evenodd" clip-rule="evenodd" d="M17.962 6.309C17.937 6.24698 17.9 6.192 17.853 6.14602L11.854 0.147C11.808 0.101016 11.752 0.0639844 11.691 0.0380156C11.63 0.0129844 11.565 0 11.5 0H1.5C0.672984 0 0 0.672984 0 1.5V22.5C0 23.327 0.672984 24 1.5 24H16.5C17.327 24 18 23.327 18 22.5V6.50002C18 6.435 17.987 6.36998 17.962 6.309ZM13.5 18H4.5C4.224 18 3.99998 17.776 3.99998 17.5C3.99998 17.224 4.224 17 4.5 17H13.5C13.776 17 14 17.224 14 17.5C14 17.776 13.776 18 13.5 18ZM4.5 14H13.5C13.776 14 14 13.776 14 13.5C14 13.224 13.776 13 13.5 13H4.5C4.224 13 3.99998 13.224 3.99998 13.5C3.99998 13.776 4.224 14 4.5 14ZM13.5 9.99998H4.5C4.224 9.99998 3.99998 9.77597 3.99998 9.49997C3.99998 9.22397 4.224 9 4.5 9H13.5C13.776 9 14 9.22402 14 9.50002C14 9.77602 13.776 9.99998 13.5 9.99998ZM12 5.49998C12 5.77598 12.225 6 12.5 6H16.293L12 1.707V5.49998Z" fill="#1DA1F2"/>
</svg>
