<svg width="19" height="15" viewBox="0 0 19 15" fill="none" xmlns="http://www.w3.org/2000/svg">
<path d="M6.08059 14.8887C12.8714 14.8887 16.5867 9.26126 16.5867 4.38263C16.5867 4.22443 16.5832 4.06271 16.5761 3.9045C17.2989 3.38183 17.9226 2.73442 18.418 1.99271C17.7449 2.29218 17.0302 2.48777 16.2984 2.57278C17.0689 2.11091 17.6459 1.38534 17.9223 0.530558C17.1974 0.960151 16.4047 1.26319 15.578 1.42669C15.0211 0.834904 14.2847 0.44307 13.4827 0.311771C12.6808 0.180472 11.8579 0.317021 11.1413 0.700305C10.4247 1.08359 9.85432 1.69226 9.51835 2.43222C9.18239 3.17217 9.09954 4.00219 9.28262 4.79396C7.81484 4.7203 6.37892 4.33901 5.06796 3.67481C3.75699 3.0106 2.60024 2.07831 1.6727 0.938371C1.20127 1.75117 1.05701 2.71297 1.26924 3.6283C1.48147 4.54364 2.03427 5.34382 2.81527 5.86622C2.22894 5.84761 1.65545 5.68974 1.14219 5.40567V5.45138C1.14166 6.30435 1.43654 7.13117 1.9767 7.79131C2.51686 8.45145 3.26896 8.90415 4.10516 9.07247C3.56201 9.22108 2.99196 9.24273 2.4391 9.13575C2.67506 9.86931 3.13415 10.5109 3.7523 10.971C4.37045 11.4311 5.11681 11.6867 5.88723 11.7022C4.57929 12.7296 2.9636 13.2868 1.30039 13.2842C1.00543 13.2837 0.710768 13.2657 0.417969 13.2301C2.10761 14.314 4.07312 14.8898 6.08059 14.8887Z" fill="#1DA1F2"/>
</svg>
