<svg width="19" height="18" viewBox="0 0 19 18" fill="none" xmlns="http://www.w3.org/2000/svg">
<mask id="mask0" mask-type="alpha" maskUnits="userSpaceOnUse" x="0" y="0" width="19" height="18">
<rect x="0.5" width="18" height="18" fill="white"/>
</mask>
<g mask="url(#mask0)">
<path d="M16.6687 5.80646C16.6687 5.64825 16.6652 5.48653 16.6582 5.32833C17.3809 4.80566 18.0046 4.15825 18.5 3.41653C17.8269 3.71601 17.1122 3.9116 16.3804 3.99661C17.151 3.53474 17.7279 2.80917 18.0043 1.95439C17.2794 2.38398 16.4867 2.68702 15.6601 2.85052C15.1031 2.25873 14.3667 1.8669 13.5648 1.7356C12.7628 1.6043 11.9399 1.74085 11.2233 2.12413C10.5067 2.50742 9.93635 3.11609 9.60039 3.85604C9.26442 4.596 9.18157 5.42602 9.36465 6.21778C7.89687 6.14413 6.46095 5.76284 5.14999 5.09863C3.83902 4.43443 2.68227 3.50214 1.75473 2.3622C1.2833 3.17499 1.13904 4.1368 1.35127 5.05213C1.5635 5.96746 2.1163 6.76765 2.8973 7.29005C2.31097 7.27144 1.73748 7.11357 1.22422 6.8295V6.87521C1.22369 7.72817 1.51857 8.555 2.05873 9.21514C2.59889 9.87528 3.35099 10.328 4.18719 10.4963C3.64404 10.6449 3.07399 10.6666 2.52113 10.5596C2.75709 11.2931 3.21618 11.9347 3.83433 12.3948C4.45248 12.8549 5.19884 13.1105 5.96926 13.126C4.66132 14.1534 3.04563 14.7107 1.38242 14.708C1.08747 14.7076 0.792799 14.6895 0.5 14.6539C2.18964 15.7379 4.15515 16.3136 6.16262 16.3125C12.9534 16.3125 16.6687 10.6851 16.6687 5.80646Z" fill="white"/>
</g>
</svg>
