<svg width="25" height="24" viewBox="0 0 25 24" fill="none" xmlns="http://www.w3.org/2000/svg">
<g opacity="0.4">
<mask id="mask0" mask-type="alpha" maskUnits="userSpaceOnUse" x="0" y="0" width="25" height="24">
<rect x="0.5" width="24" height="24" fill="white"/>
</mask>
<g mask="url(#mask0)">
<path d="M8.71802 9.33499C8.59402 9.05399 8.66702 8.72499 8.88402 8.50799L9.70302 7.68999C10.374 7.01899 10.374 6.06999 9.78802 5.48399L8.61402 4.30999C7.83302 3.52899 6.56702 3.52899 5.78602 4.30999L5.13402 4.96199C4.39302 5.70299 4.08402 6.77199 4.28402 7.83199C4.77802 10.445 6.29602 13.306 8.74502 15.755C11.194 18.204 14.055 19.722 16.668 20.216C17.728 20.416 18.797 20.107 19.538 19.366L20.189 18.715C20.97 17.934 20.97 16.668 20.189 15.887L19.016 14.714C18.43 14.128 17.48 14.128 16.895 14.714L15.992 15.618C15.775 15.835 15.446 15.908 15.165 15.784C13.836 15.197 12.526 14.314 11.356 13.144V13.144C10.186 11.974 9.30402 10.664 8.71802 9.33499Z" stroke="white" stroke-linecap="round" stroke-linejoin="round"/>
</g>
</g>
</svg>
