<svg width="36" height="36" viewBox="0 0 36 36" fill="none" xmlns="http://www.w3.org/2000/svg">
<mask id="mask0" mask-type="alpha" maskUnits="userSpaceOnUse" x="0" y="0" width="36" height="36">
<rect width="36" height="36" fill="white"/>
</mask>
<g mask="url(#mask0)">
<path d="M18 13.4925V12" stroke="#99C5DF" stroke-width="1.5" stroke-linecap="round" stroke-linejoin="round"/>
<path d="M18 22.5075V24" stroke="#99C5DF" stroke-width="1.5" stroke-linecap="round" stroke-linejoin="round"/>
<path d="M15.3989 21.4185C15.7874 22.0545 16.4489 22.494 17.2499 22.494H17.9999H18.8924C20.0549 22.494 20.9969 21.552 20.9969 20.3895C20.9969 19.425 20.3414 18.582 19.4039 18.3495L16.5959 17.6445C15.6599 17.409 15.0029 16.5675 15.0029 15.6045C15.0029 14.442 15.9449 13.5 17.1074 13.5H17.9999H18.7499C19.5479 13.5 20.2094 13.938 20.5994 14.5695" stroke="#99C5DF" stroke-width="1.5" stroke-linecap="round" stroke-linejoin="round"/>
<path d="M7.035 22.542L7.422 25.4625C7.6365 27.0825 8.91 28.3575 10.53 28.5735L13.458 28.965L15.8025 30.756C17.1 31.7475 18.8985 31.7475 20.196 30.756L22.542 28.9635H22.539L25.461 28.5765C27.081 28.362 28.356 27.0885 28.572 25.4685L28.962 22.5405C28.962 22.542 29.868 21.3555 30.7545 20.196C31.746 18.8985 31.7445 17.1 30.7545 15.8025L28.965 13.4565L28.578 10.536C28.3635 8.91599 27.09 7.64099 25.47 7.42499L22.5405 7.03499L20.196 5.24399C18.8985 4.25249 17.1 4.25249 15.8025 5.24399L13.4565 7.03499H13.4595L10.5375 7.42349C8.9175 7.63799 7.6425 8.91149 7.4265 10.5315L7.035 13.4595C7.035 13.458 6.129 14.6445 5.2425 15.804C4.2525 17.1 4.2525 18.9 5.2425 20.196V20.196L7.035 22.542Z" stroke="#C7CBD1" stroke-width="1.5" stroke-linecap="round" stroke-linejoin="round"/>
</g>
</svg>
