<svg width="20" height="14" viewBox="0 0 20 14" fill="none" xmlns="http://www.w3.org/2000/svg">
<path d="M18.9873 1.40854C18.9873 1.38609 19.0023 1.36424 19.0013 1.34204L13.2031 7.1196L18.9944 12.7126C18.9977 12.6727 18.9873 12.6324 18.9873 12.5916V1.40854Z" fill="#1DA1F2"/>
<path d="M12.318 8.0087L9.95104 10.3638C9.83127 10.4829 9.67657 10.5427 9.52179 10.5427C9.37024 10.5427 9.21868 10.4855 9.09973 10.3709L6.73919 8.09611L0.910156 13.9065C1.05189 13.9591 1.20403 14 1.36334 14H17.6803C17.9169 14 18.1388 13.9255 18.3317 13.8143L12.318 8.0087Z" fill="#1DA1F2"/>
<path d="M9.51552 9.02078L18.3643 0.205817C18.164 0.0826341 17.9308 0 17.6808 0H1.36383C1.03835 0 0.740102 0.130695 0.507812 0.330024L9.51552 9.02078Z" fill="#1DA1F2"/>
<path d="M0 1.62323V12.5914C0 12.7173 0.0279837 12.8387 0.0583613 12.9547L5.81508 7.22186L0 1.62323Z" fill="#1DA1F2"/>
</svg>
