<svg width="36" height="36" viewBox="0 0 36 36" fill="none" xmlns="http://www.w3.org/2000/svg">
<mask id="mask0" mask-type="alpha" maskUnits="userSpaceOnUse" x="0" y="0" width="36" height="36">
<rect width="36" height="36" fill="white"/>
</mask>
<g mask="url(#mask0)">
<path d="M30 15V7.5C30 5.84314 28.6569 4.5 27 4.5H7.5V4.5C5.84314 4.5 4.5 5.84315 4.5 7.5V28.5V28.5C4.5 30.1569 5.84315 31.5 7.5 31.5H15" stroke="#25303F" stroke-width="1.5" stroke-linecap="round" stroke-linejoin="round"/>
<path d="M13.875 22.5H15" stroke="#25303F" stroke-width="1.5" stroke-linecap="round" stroke-linejoin="round"/>
<path d="M13.875 16.5H21" stroke="#25303F" stroke-width="1.5" stroke-linecap="round" stroke-linejoin="round"/>
<path d="M13.875 10.6801H24" stroke="#25303F" stroke-width="1.5" stroke-linecap="round" stroke-linejoin="round"/>
<path d="M9.5 23.3125C9.77614 23.3125 10 23.0886 10 22.8125C10 22.5364 9.77614 22.3125 9.5 22.3125C9.22386 22.3125 9 22.5364 9 22.8125C9 23.0886 9.22386 23.3125 9.5 23.3125Z" fill="#25303F" stroke="#25303F" stroke-width="0.5" stroke-linecap="round" stroke-linejoin="round"/>
<path d="M9.5 17.3125C9.77614 17.3125 10 17.0886 10 16.8125C10 16.5364 9.77614 16.3125 9.5 16.3125C9.22386 16.3125 9 16.5364 9 16.8125C9 17.0886 9.22386 17.3125 9.5 17.3125Z" fill="#25303F" stroke="#25303F" stroke-width="0.5" stroke-linecap="round" stroke-linejoin="round"/>
<path d="M9.5 11.5C9.77614 11.5 10 11.2761 10 11C10 10.7239 9.77614 10.5 9.5 10.5C9.22386 10.5 9 10.7239 9 11C9 11.2761 9.22386 11.5 9.5 11.5Z" fill="#25303F" stroke="#25303F" stroke-width="0.5" stroke-linecap="round" stroke-linejoin="round"/>
<path d="M26.25 19.5V19.5C29.9779 19.5 33 22.5221 33 26.25C33 29.9779 29.9779 33 26.25 33C22.5221 33 19.5 29.9779 19.5 26.25V26.25C19.5 22.5221 22.5221 19.5 26.25 19.5C26.25 19.5 26.25 19.5 26.25 19.5" stroke="#1DA1F2" stroke-width="1.5" stroke-linecap="round" stroke-linejoin="round"/>
<path d="M28.584 25.0844L25.668 28.0004L23.916 26.2499" stroke="#1DA1F2" stroke-width="1.5" stroke-linecap="round" stroke-linejoin="round"/>
</g>
</svg>
