<svg width="36" height="36" viewBox="0 0 36 36" fill="none" xmlns="http://www.w3.org/2000/svg">
<mask id="mask0" mask-type="alpha" maskUnits="userSpaceOnUse" x="0" y="0" width="36" height="36">
<rect width="36" height="36" fill="white"/>
</mask>
<g mask="url(#mask0)">
<path d="M17.9623 25.4623C15.9121 27.5125 12.588 27.5125 10.5377 25.4623C8.48743 23.412 8.48743 20.0879 10.5377 18.0377C12.588 15.9874 15.9121 15.9874 17.9623 18.0377C20.0126 20.0879 20.0126 23.412 17.9623 25.4623Z" stroke="#1DA1F2" stroke-width="1.5" stroke-linecap="round" stroke-linejoin="round"/>
<path d="M24 19.5H27" stroke="#1DA1F2" stroke-width="1.5" stroke-linecap="round" stroke-linejoin="round"/>
<path d="M24 24H27" stroke="#1DA1F2" stroke-width="1.5" stroke-linecap="round" stroke-linejoin="round"/>
<path d="M4.5 12H31.5" stroke="#2A384A" stroke-width="1.5" stroke-linecap="round" stroke-linejoin="round"/>
<path d="M7.5 4.5C5.8425 4.5 4.5 5.8425 4.5 7.5V28.5C4.5 30.1575 5.8425 31.5 7.5 31.5H28.5C30.1575 31.5 31.5 30.1575 31.5 28.5V7.5C31.5 5.8425 30.1575 4.5 28.5 4.5H7.5Z" stroke="#2A384A" stroke-width="1.5" stroke-linecap="round" stroke-linejoin="round"/>
<path d="M14.2501 16.5V21.75L10.5436 25.4565" stroke="#1DA1F2" stroke-width="1.5" stroke-linecap="round" stroke-linejoin="round"/>
<circle cx="8" cy="8" r="1" fill="#1DA1F2"/>
<circle cx="12" cy="8" r="1" fill="#1DA1F2"/>
<circle cx="16" cy="8" r="1" fill="#1DA1F2"/>
</g>
</svg>
