<svg width="19" height="18" viewBox="0 0 19 18" fill="none" xmlns="http://www.w3.org/2000/svg">
<mask id="mask0" mask-type="alpha" maskUnits="userSpaceOnUse" x="0" y="0" width="19" height="18">
<rect x="0.5" width="18" height="18" fill="white"/>
</mask>
<g mask="url(#mask0)">
<path fill-rule="evenodd" clip-rule="evenodd" d="M1.82891 0C1.09414 0 0.5 0.580078 0.5 1.29727V16.6992C0.5 17.4164 1.09414 18 1.82891 18H17.1676C17.9023 18 18.5 17.4164 18.5 16.7027V1.29727C18.5 0.580078 17.9023 0 17.1676 0H1.82891ZM3.16836 15.3387V6.74648H5.84023V15.3387H3.16836ZM2.95391 4.02891C2.95391 3.17461 3.64648 2.48203 4.5043 2.48203C5.35859 2.48203 6.05117 3.17461 6.05117 4.02891C6.05117 4.87969 5.35859 5.57578 4.5043 5.57578C3.64648 5.57578 2.95391 4.8832 2.95391 4.02891ZM13.1703 15.3387V11.1621C13.1703 10.1672 13.1527 8.88398 11.7816 8.88398C10.393 8.88398 10.182 9.97031 10.182 11.0918V15.3387H7.51719V6.74648H10.0766V7.9207H10.1117C10.4668 7.2457 11.3387 6.53203 12.6359 6.53203C15.3395 6.53203 15.8387 8.31094 15.8387 10.6242V15.3387H13.1703Z" fill="white"/>
</g>
</svg>
