<svg width="19" height="19" viewBox="0 0 19 19" fill="none" xmlns="http://www.w3.org/2000/svg">
<path d="M17.2496 0.576172H1.91094C1.17617 0.576172 0.582031 1.15625 0.582031 1.87344V17.2754C0.582031 17.9926 1.17617 18.5762 1.91094 18.5762H17.2496C17.9844 18.5762 18.582 17.9926 18.582 17.2789V1.87344C18.582 1.15625 17.9844 0.576172 17.2496 0.576172ZM5.92227 15.9148H3.25039V7.32266H5.92227V15.9148ZM4.58633 6.15195C3.72852 6.15195 3.03594 5.45937 3.03594 4.60508C3.03594 3.75078 3.72852 3.0582 4.58633 3.0582C5.44063 3.0582 6.1332 3.75078 6.1332 4.60508C6.1332 5.45586 5.44063 6.15195 4.58633 6.15195ZM15.9207 15.9148H13.2523V11.7383C13.2523 10.7434 13.2348 9.46016 11.8637 9.46016C10.475 9.46016 10.2641 10.5465 10.2641 11.668V15.9148H7.59922V7.32266H10.1586V8.49688H10.1937C10.5488 7.82188 11.4207 7.1082 12.718 7.1082C15.4215 7.1082 15.9207 8.88711 15.9207 11.2004V15.9148Z" fill="#1DA1F2"/>
</svg>