<svg width="137" height="18" viewBox="0 0 137 18" fill="none" xmlns="http://www.w3.org/2000/svg">
<mask id="mask0" mask-type="alpha" maskUnits="userSpaceOnUse" x="0" y="0" width="137" height="18">
<rect y="0.698242" width="137" height="17.0451" fill="white"/>
</mask>
<g mask="url(#mask0)">
<path d="M7.12172 3.46386C7.09904 3.97927 7.01647 4.4903 6.87567 4.98664L2.41969 16.8492C2.25501 17.2948 2.04384 17.3878 1.29407 17.3878H0.474561C0.0522117 17.3878 -0.0892172 17.1766 0.0522116 16.7795L6.14334 1.21649C6.19292 1.05471 6.29755 0.915385 6.4391 0.822673C6.58065 0.72996 6.75018 0.68971 6.91829 0.7089H7.85598C8.0218 0.691022 8.18877 0.729974 8.32955 0.819373C8.47034 0.908773 8.5766 1.04332 8.63094 1.201L14.7298 16.7892C14.8712 17.1766 14.7298 17.3975 14.3075 17.3975H13.393C12.6433 17.3975 12.4243 17.3045 12.2674 16.8589L7.83661 5.01376L7.12172 3.46386Z" fill="#1DA1F2"/>
<path d="M20.6891 1.35516V2.24636C20.6891 2.69196 20.8286 2.85469 21.2974 2.85469H25.7302V16.7883C25.7302 17.2339 25.8696 17.3967 26.3385 17.3967H27.3711C27.84 17.3967 27.9795 17.2339 27.9795 16.7883V2.85469H32.4122C32.8578 2.85469 33.0205 2.69196 33.0205 2.24636V1.35516C33.0205 0.909563 32.8578 0.746826 32.4122 0.746826H21.2974C20.8286 0.746826 20.6891 0.909563 20.6891 1.35516Z" fill="#1DA1F2"/>
<path d="M43.998 0.746826H42.9673C42.4985 0.746826 42.3571 0.909563 42.3571 1.35516V11.695C42.3571 15.4457 44.6083 17.7435 48.7504 17.7435C52.9468 17.7435 55.1728 15.4457 55.1728 11.695V1.35516C55.1728 0.909563 55.0101 0.746826 54.5645 0.746826H53.5319C53.063 0.746826 52.8983 0.909563 52.8983 1.35516V11.7182C52.9061 14.1806 51.4782 15.6259 48.7659 15.6259C46.0536 15.6259 44.616 14.1729 44.616 11.7105L44.6083 1.35516C44.6083 0.909563 44.4669 0.746826 43.998 0.746826Z" fill="#1DA1F2"/>
<path fill-rule="evenodd" clip-rule="evenodd" d="M65.9232 1.35516V16.7883C65.9232 17.2339 66.0879 17.3967 66.5335 17.3967H67.5584C68.0253 17.3967 68.1919 17.2339 68.1919 16.7883V10.7088H70.6989C72.4115 10.7088 73.1148 11.1564 73.7987 12.5629L75.9298 16.8523C76.141 17.2979 76.3754 17.3909 77.1484 17.3909H78.181C78.6266 17.3909 78.7196 17.1797 78.5085 16.7593L75.9066 11.7221C75.554 11.0886 75.1568 10.643 74.7344 10.4085C76.914 9.91645 78.181 8.25224 78.181 5.74333C78.181 2.57765 76.2824 0.750699 73.1167 0.750699L66.5335 0.746826C66.0879 0.746826 65.9232 0.909563 65.9232 1.35516ZM75.8174 5.74527C75.8174 7.55091 74.7635 8.60485 72.9114 8.60485H68.1996V2.85469H72.9114C74.7635 2.85469 75.8174 3.88732 75.8174 5.73946" fill="#1DA1F2"/>
<path d="M89.0905 17.3967H90.1231C90.592 17.3967 90.7566 17.2339 90.7566 16.7883V1.35516C90.7566 0.909563 90.592 0.746826 90.1231 0.746826H89.0905C88.6449 0.746826 88.4822 0.909563 88.4822 1.35516V16.7883C88.4822 17.2339 88.6449 17.3967 89.0905 17.3967Z" fill="#1DA1F2"/>
<path d="M134.819 1.35519V9.84285C134.833 10.7911 134.897 11.7379 135.012 12.6792C135.131 13.7583 135.206 14.3201 135.206 14.3666H135.088C135.065 14.3201 134.83 13.828 134.385 12.9136C133.999 12.1188 133.56 11.3512 133.071 10.6159L126.484 1.04908C126.421 0.94648 126.33 0.863714 126.222 0.810263C126.114 0.756812 125.994 0.734836 125.874 0.746852H124.843C124.397 0.746852 124.233 0.909589 124.233 1.35519V16.7884C124.233 17.234 124.397 17.3967 124.843 17.3967H125.812C126.281 17.3967 126.445 17.234 126.445 16.7884V8.10696C126.429 7.18974 126.365 6.274 126.252 5.36363C126.109 4.30969 126.039 3.77045 126.04 3.74591H126.157L126.862 5.15246C127.202 5.91748 127.602 6.65466 128.057 7.3572L134.739 17.0867C134.808 17.1887 134.903 17.2705 135.014 17.3239C135.125 17.3773 135.248 17.4005 135.371 17.3909H136.403C136.849 17.3909 137.012 17.2282 137.012 16.7826V1.35519C137.012 0.909589 136.849 0.746852 136.403 0.746852H135.429C134.96 0.746852 134.819 0.909589 134.819 1.35519Z" fill="#1DA1F2"/>
<path d="M107.251 3.46299C107.229 3.9784 107.146 4.48943 107.005 4.98576L102.549 16.8484C102.385 17.294 102.173 17.3869 101.424 17.3869H100.602C100.18 17.3869 100.04 17.1758 100.18 16.7786L106.275 1.21175C106.323 1.04858 106.427 0.907501 106.569 0.81301C106.71 0.718519 106.881 0.676576 107.05 0.694466H107.988C108.387 0.694466 108.645 0.858499 108.763 1.18656L114.859 16.7883C115.001 17.1758 114.859 17.3966 114.437 17.3966H113.523C112.773 17.3966 112.554 17.3036 112.397 16.858L107.966 5.01289L107.251 3.46299Z" fill="#1DA1F2"/>
</g>
</svg>
