<svg width="41" height="41" viewBox="0 0 41 41" fill="none" xmlns="http://www.w3.org/2000/svg">
<mask id="mask0" mask-type="alpha" maskUnits="userSpaceOnUse" x="0" y="0" width="41" height="41">
<rect width="41" height="41" fill="white"/>
</mask>
<g mask="url(#mask0)">
<path d="M20.5 15.3664V13.6666" stroke="#1DA1F2" stroke-width="1.5" stroke-linecap="round" stroke-linejoin="round"/>
<path d="M20.5 25.6335V27.3333" stroke="#1DA1F2" stroke-width="1.5" stroke-linecap="round" stroke-linejoin="round"/>
<path d="M17.5379 24.3933C17.9804 25.1176 18.7337 25.6182 19.646 25.6182H20.5002H21.5166C22.8406 25.6182 23.9134 24.5453 23.9134 23.2214C23.9134 22.1229 23.1669 21.1628 22.0992 20.898L18.9012 20.0951C17.8352 19.8269 17.0869 18.8685 17.0869 17.7718C17.0869 16.4478 18.1597 15.375 19.4837 15.375H20.5002H21.3543C22.2632 15.375 23.0165 15.8738 23.4607 16.593" stroke="#1DA1F2" stroke-width="1.5" stroke-linecap="round" stroke-linejoin="round"/>
<path d="M8.01208 25.6728L8.45283 28.9989C8.69713 30.8439 10.1475 32.296 11.9925 32.542L15.3272 32.9879L17.9973 35.0276C19.475 36.1568 21.5233 36.1568 23.001 35.0276L25.6728 32.9861H25.6694L28.9973 32.5454C30.8423 32.3011 32.2943 30.8507 32.5403 29.0057L32.9845 25.6711C32.9845 25.6728 34.0163 24.3215 35.026 23.0009C36.1552 21.5232 36.1535 19.4749 35.026 17.9972L32.9879 15.3254L32.5472 11.9993C32.3029 10.1543 30.8525 8.70219 29.0075 8.45619L25.6711 8.01202L23.001 5.97227C21.5233 4.84306 19.475 4.84306 17.9973 5.97227L15.3255 8.01202H15.3289L12.001 8.45448C10.156 8.69877 8.70396 10.1491 8.45796 11.9941L8.01208 15.3288C8.01208 15.3271 6.98025 16.6784 5.97062 17.9989C4.84312 19.4749 4.84312 21.5249 5.97062 23.0009V23.0009L8.01208 25.6728Z" stroke="#2A384A" stroke-width="1.5" stroke-linecap="round" stroke-linejoin="round"/>
</g>
</svg>
