<svg width="44" height="44" viewBox="0 0 44 44" fill="none" xmlns="http://www.w3.org/2000/svg">
<mask id="mask0" mask-type="alpha" maskUnits="userSpaceOnUse" x="0" y="0" width="44" height="44">
<rect width="44" height="44" fill="white"/>
</mask>
<g mask="url(#mask0)">
<path d="M33.7462 25.696C34.4428 23.9892 34.8333 22.1247 34.8333 20.1667C34.8333 12.067 28.2663 5.5 20.1667 5.5C12.067 5.5 5.5 12.067 5.5 20.1667C5.5 28.2663 12.067 34.8333 20.1667 34.8333C22.1247 34.8333 23.991 34.4428 25.6997 33.7462" stroke="#2A384A" stroke-width="1.5" stroke-linecap="round" stroke-linejoin="round"/>
<path d="M20.1665 14.9087V13.7408" stroke="#1DA1F2" stroke-width="1.5" stroke-linecap="round" stroke-linejoin="round"/>
<path d="M20.1665 25.4082V26.5742" stroke="#1DA1F2" stroke-width="1.5" stroke-linecap="round" stroke-linejoin="round"/>
<path d="M17.1289 24.156C17.5817 24.8985 18.3554 25.41 19.2922 25.41H20.1667H21.2099C22.5684 25.41 23.6665 24.31 23.6665 22.9534C23.6665 21.8259 22.8984 20.845 21.8057 20.5682L18.524 19.7432C17.4332 19.47 16.665 18.4892 16.665 17.3617C16.665 16.0032 17.765 14.905 19.1217 14.905H20.1667H21.0412C21.9744 14.905 22.748 15.4165 23.199 16.1572" stroke="#1DA1F2" stroke-width="1.5" stroke-linecap="round" stroke-linejoin="round"/>
<path d="M40.3332 33C40.3332 37.0498 37.0497 40.3333 32.9998 40.3333C28.95 40.3333 25.6665 37.0498 25.6665 33C25.6665 28.9501 28.95 25.6666 32.9998 25.6666C37.0497 25.6666 40.3332 28.9501 40.3332 33Z" stroke="#1DA1F2" stroke-width="1.5" stroke-linecap="round" stroke-linejoin="round"/>
<path d="M30.5801 33.2401H35.4934" stroke="#1DA1F2" stroke-width="1.5" stroke-linecap="round" stroke-linejoin="round"/>
<path d="M33.0352 35.6969V30.7836" stroke="#1DA1F2" stroke-width="1.5" stroke-linecap="round" stroke-linejoin="round"/>
</g>
</svg>
