<svg width="22" height="20" viewBox="0 0 22 20" fill="none" xmlns="http://www.w3.org/2000/svg">
<path d="M22 2.36769C21.1819 2.76923 20.3101 3.03538 19.4013 3.16462C20.3363 2.54 21.0499 1.55846 21.3854 0.375385C20.5136 0.956923 19.5511 1.36769 18.5254 1.59692C17.6976 0.610769 16.5179 0 15.2309 0C12.7339 0 10.7236 2.26769 10.7236 5.04769C10.7236 5.44769 10.7539 5.83231 10.8281 6.19846C7.0785 5.99385 3.76062 3.98308 1.53175 0.92C1.14262 1.67538 0.914375 2.54 0.914375 3.47077C0.914375 5.21846 1.71875 6.76769 2.91775 7.66462C2.19312 7.64923 1.48225 7.41385 0.88 7.04308C0.88 7.05846 0.88 7.07846 0.88 7.09846C0.88 9.55077 2.44338 11.5877 4.4935 12.0569C4.12638 12.1692 3.72625 12.2231 3.311 12.2231C3.02225 12.2231 2.73075 12.2046 2.45712 12.1369C3.0415 14.1354 4.69975 15.6046 6.6715 15.6523C5.137 16.9954 3.18863 17.8046 1.07938 17.8046C0.7095 17.8046 0.35475 17.7862 0 17.7354C1.99787 19.1769 4.36563 20 6.919 20C15.2185 20 19.756 12.3077 19.756 5.64C19.756 5.41692 19.7491 5.20154 19.7395 4.98769C20.6346 4.27692 21.3867 3.38923 22 2.36769Z" fill="white"/>
</svg>
