<svg width="15" height="16" viewBox="0 0 15 16" fill="none" xmlns="http://www.w3.org/2000/svg">
<path d="M13.7964 10.8375C12.878 10.8375 11.9763 10.6938 11.1218 10.4115C10.7031 10.2687 10.1884 10.3997 9.93285 10.6621L8.24625 11.9353C6.29027 10.8912 5.08543 9.68678 4.05559 7.74549L5.29133 6.10283C5.61238 5.78221 5.72754 5.31385 5.58957 4.87439C5.30598 4.01541 5.16191 3.11412 5.16191 2.19537C5.16195 1.53166 4.62199 0.991699 3.95832 0.991699H1.20363C0.539961 0.991699 0 1.53166 0 2.19533C0 9.80275 6.18898 15.9917 13.7964 15.9917C14.4601 15.9917 15 15.4517 15 14.7881V12.0411C15 11.3774 14.46 10.8375 13.7964 10.8375Z" fill="#E63946"/>
</svg>
