<svg width="31" height="31" viewBox="0 0 31 31" fill="none" xmlns="http://www.w3.org/2000/svg">
<path d="M28.5125 20.3479C26.6146 20.3479 24.751 20.0511 22.9851 19.4675C22.1197 19.1724 21.056 19.4431 20.5278 19.9856L17.0422 22.6168C12.9999 20.459 10.5099 17.9698 8.38152 13.9578L10.9354 10.563C11.5989 9.90038 11.8369 8.93244 11.5517 8.02424C10.9657 6.249 10.6679 4.38634 10.6679 2.48759C10.668 1.11592 9.55209 0 8.18051 0H2.4875C1.11592 0 0 1.11592 0 2.48751C0 18.2095 12.7905 31 28.5125 31C29.8841 31 31 29.8841 31 28.5125V22.8354C30.9999 21.4639 29.884 20.3479 28.5125 20.3479Z" fill="#457B9D"/>
</svg>
