<svg width="16" height="16" viewBox="0 0 16 16" fill="none" xmlns="http://www.w3.org/2000/svg">
<path fill-rule="evenodd" clip-rule="evenodd" d="M0 8C0 3.58862 3.58862 0 8 0C12.4114 0 16 3.58862 16 8C16 12.4114 12.4114 16 8 16C3.58862 16 0 12.4114 0 8ZM11.3334 12.3334C11.504 12.3334 11.6747 12.2679 11.8047 12.1379C12.0653 11.8773 12.0653 11.4561 11.8047 11.1953L8.66663 8.05737V4C8.66663 3.63135 8.36804 3.33337 8 3.33337C7.63196 3.33337 7.33337 3.63135 7.33337 4V8.33337C7.33337 8.51062 7.40332 8.68005 7.52869 8.80469L10.8621 12.1379C10.9919 12.2679 11.1627 12.3334 11.3334 12.3334Z" fill="white"/>
</svg>
