<svg width="21" height="21" viewBox="0 0 21 21" fill="none" xmlns="http://www.w3.org/2000/svg">
<path d="M20.9949 21.0002V20.9993H21.0001V13.2976C21.0001 9.52982 20.189 6.62744 15.7842 6.62744C13.6667 6.62744 12.2457 7.78944 11.6656 8.89107H11.6044V6.97919H7.42798V20.9993H11.7767V14.0571C11.7767 12.2292 12.1232 10.4617 14.3869 10.4617C16.6172 10.4617 16.6505 12.5477 16.6505 14.1743V21.0002H20.9949Z" fill="white"/>
<path d="M0.346436 6.97998H4.70044V21.0001H0.346436L0.346436 6.97998Z" fill="white"/>
<path d="M2.52175 0C1.12962 0 0 1.12962 0 2.52175C0 3.91388 1.12962 5.06712 2.52175 5.06712C3.91388 5.06712 5.0435 3.91388 5.0435 2.52175C5.04262 1.12962 3.913 0 2.52175 0Z" fill="white"/>
</svg>
