<svg width="21" height="21" viewBox="0 0 21 21" fill="none" xmlns="http://www.w3.org/2000/svg">
<path fill-rule="evenodd" clip-rule="evenodd" d="M5.79512 0H15.2046C18.4003 0 21.0001 2.59982 21 5.79524V15.2048C21 18.4002 18.4003 21 15.2046 21H5.79512C2.59969 21 0 18.4003 0 15.2048V5.79524C0 2.59982 2.59969 0 5.79512 0ZM15.2048 19.1368C17.3729 19.1368 19.1369 17.3729 19.1369 15.2048H19.1368V5.79524C19.1368 3.6272 17.3728 1.86322 15.2046 1.86322H5.79512C3.62707 1.86322 1.86322 3.6272 1.86322 5.79524V15.2048C1.86322 17.3729 3.62707 19.1369 5.79512 19.1368H15.2048Z" fill="white"/>
<path fill-rule="evenodd" clip-rule="evenodd" d="M5.08887 10.5C5.08887 7.51627 7.51627 5.08887 10.5 5.08887C13.4838 5.08887 15.9112 7.51627 15.9112 10.5C15.9112 13.4837 13.4838 15.911 10.5 15.911C7.51627 15.911 5.08887 13.4837 5.08887 10.5ZM6.95209 10.4999C6.95209 12.4562 8.54378 14.0476 10.5 14.0476C12.4563 14.0476 14.048 12.4562 14.048 10.4999C14.048 8.54353 12.4564 6.95196 10.5 6.95196C8.54365 6.95196 6.95209 8.54353 6.95209 10.4999Z" fill="white"/>
<path d="M16.1381 3.50928C15.7791 3.50928 15.4265 3.65461 15.1729 3.90925C14.9182 4.16265 14.7717 4.51542 14.7717 4.87564C14.7717 5.23475 14.9183 5.58739 15.1729 5.84203C15.4263 6.09543 15.7791 6.242 16.1381 6.242C16.4983 6.242 16.8498 6.09543 17.1045 5.84203C17.3591 5.58739 17.5045 5.23462 17.5045 4.87564C17.5045 4.51542 17.3591 4.16265 17.1045 3.90925C16.8511 3.65461 16.4983 3.50928 16.1381 3.50928Z" fill="white"/>
</svg>
