<svg width="193" height="59" viewBox="0 0 193 59" fill="none" xmlns="http://www.w3.org/2000/svg">
<path d="M68.4734 55.3454C68.4451 54.5768 68.4165 53.6471 68.4165 52.7174H68.3975C68.1887 53.5332 67.9233 54.444 67.6766 55.1935L66.8987 57.6883H65.7699L65.0869 55.2218C64.8781 54.4633 64.6697 53.5522 64.5082 52.7174H64.4892C64.4609 53.5808 64.4229 54.5675 64.385 55.364L64.2617 57.7925H62.9241L63.332 51.3988H65.2577L65.8837 53.5332C66.0922 54.2731 66.282 55.07 66.4245 55.8192H66.4625C66.6333 55.0793 66.8514 54.2352 67.0695 53.5236L67.7428 51.3984H69.6402L69.9815 57.7922H68.5776L68.4734 55.3454Z" fill="#E63946"/>
<path d="M75.6552 55.4218C75.6552 57.12 74.4505 57.8979 73.2077 57.8979C71.8511 57.8979 70.8076 57.0061 70.8076 55.5073C70.8076 53.9989 71.7942 53.0409 73.293 53.0409C74.7065 53.0409 75.6552 54.0179 75.6552 55.4218ZM72.297 55.4694C72.297 56.2662 72.629 56.8639 73.2457 56.8639C73.8148 56.8639 74.1657 56.3042 74.1657 55.4601C74.1657 54.7768 73.9 54.0752 73.2457 54.0752C72.5627 54.0748 72.297 54.7864 72.297 55.4694Z" fill="#E63946"/>
<path d="M76.5478 54.6822C76.5478 53.9989 76.5385 53.553 76.5099 53.1548H77.7429L77.7999 54.0082H77.8378C78.0749 53.3253 78.6347 53.0409 79.0899 53.0409C79.2227 53.0409 79.289 53.0502 79.3936 53.0692V54.4258C79.2797 54.4068 79.1658 54.3878 79.0046 54.3878C78.4735 54.3878 78.1129 54.6722 78.018 55.1184C77.999 55.213 77.9897 55.3269 77.9897 55.4407V57.7933H76.5478V54.6822Z" fill="#E63946"/>
<path d="M81.1868 55.9332C81.2247 56.5309 81.8224 56.8153 82.4961 56.8153C82.9892 56.8153 83.3878 56.749 83.7768 56.6162L83.9666 57.5932C83.4924 57.7926 82.9136 57.8875 82.2876 57.8875C80.7129 57.8875 79.8115 56.9768 79.8115 55.5253C79.8115 54.3492 80.5421 53.0492 82.1548 53.0492C83.6535 53.0492 84.2226 54.216 84.2226 55.3638C84.2226 55.6102 84.1943 55.8287 84.175 55.9329H81.1868V55.9332ZM82.885 54.9466C82.885 54.5956 82.7332 54.0075 82.0692 54.0075C81.4621 54.0075 81.2154 54.5676 81.1774 54.9466H82.885Z" fill="#E63946"/>
<path d="M87.06 51.399H88.5018V56.5787H91.0442V57.7928H87.06V51.399Z" fill="#457B9D"/>
<path d="M92.8756 55.9332C92.9135 56.5309 93.5112 56.8153 94.1849 56.8153C94.678 56.8153 95.0766 56.749 95.4655 56.6162L95.6553 57.5932C95.1812 57.7926 94.6024 57.8875 93.9764 57.8875C92.4017 57.8875 91.5003 56.9768 91.5003 55.5253C91.5003 54.3492 92.2309 53.0492 93.8435 53.0492C95.3423 53.0492 95.9114 54.216 95.9114 55.3638C95.9114 55.6102 95.8831 55.8287 95.8638 55.9329H92.8756V55.9332ZM94.5738 54.9466C94.5738 54.5956 94.422 54.0075 93.758 54.0075C93.1509 54.0075 92.9042 54.5676 92.8662 54.9466H94.5738Z" fill="#457B9D"/>
<path d="M100.636 56.6741C100.636 57.1107 100.655 57.5372 100.712 57.7933H99.4125L99.327 57.3285H99.2987C98.995 57.6981 98.5208 57.8975 97.9707 57.8975C97.0317 57.8975 96.4719 57.2146 96.4719 56.4747C96.4719 55.2699 97.5535 54.7008 99.1944 54.7008V54.6439C99.1944 54.3875 99.0616 54.0369 98.35 54.0369C97.8758 54.0369 97.373 54.198 97.0693 54.3878L96.8036 53.4581C97.1262 53.278 97.7616 53.0409 98.606 53.0409C100.152 53.0409 100.636 53.9513 100.636 55.0518V56.6741ZM99.2417 55.6019C98.4828 55.6019 97.8948 55.7824 97.8948 56.3325C97.8948 56.7021 98.1412 56.8823 98.4639 56.8823C98.8148 56.8823 99.1185 56.6452 99.2131 56.3511C99.2321 56.2752 99.2414 56.19 99.2414 56.1044V55.6019H99.2417Z" fill="#457B9D"/>
<path d="M106.281 51.0571V56.4072C106.281 56.9287 106.3 57.4791 106.319 57.7921H105.038L104.981 57.1188H104.953C104.669 57.631 104.099 57.8967 103.502 57.8967C102.401 57.8967 101.519 56.9577 101.519 55.5158C101.51 53.9504 102.486 53.0397 103.596 53.0397C104.175 53.0397 104.612 53.2485 104.82 53.5612H104.839V51.0568H106.281V51.0571ZM104.839 55.1172C104.839 55.041 104.839 54.9367 104.82 54.8515C104.735 54.4719 104.422 54.1496 103.976 54.1496C103.312 54.1496 102.98 54.738 102.98 55.4682C102.98 56.2554 103.369 56.7489 103.967 56.7489C104.384 56.7489 104.726 56.4645 104.811 56.0566C104.83 55.9524 104.839 55.8385 104.839 55.7246V55.1172Z" fill="#457B9D"/>
<path d="M107.43 56.5409C107.695 56.702 108.245 56.8822 108.672 56.8822C109.109 56.8822 109.289 56.74 109.289 56.5029C109.289 56.2562 109.146 56.1423 108.616 55.9621C107.648 55.6395 107.278 55.118 107.288 54.5676C107.288 53.6948 108.028 53.0402 109.175 53.0402C109.716 53.0402 110.19 53.1727 110.475 53.3152L110.228 54.3112C110.02 54.1973 109.612 54.0455 109.223 54.0455C108.871 54.0455 108.673 54.188 108.673 54.4154C108.673 54.6428 108.853 54.7567 109.422 54.9562C110.304 55.2595 110.665 55.7147 110.674 56.3887C110.674 57.2611 110.001 57.8968 108.673 57.8968C108.066 57.8968 107.525 57.7543 107.174 57.5648L107.43 56.5409Z" fill="#457B9D"/>
<path d="M118.928 55.3454C118.9 54.5768 118.871 53.6471 118.871 52.7174H118.852C118.643 53.5332 118.377 54.444 118.131 55.1935L117.353 57.6883H116.224L115.541 55.2218C115.332 54.4633 115.123 53.5522 114.962 52.7174H114.943C114.915 53.5808 114.877 54.5675 114.839 55.364L114.716 57.7925H113.378L113.786 51.3988H115.712L116.338 53.5332C116.547 54.2731 116.736 55.07 116.879 55.8192H116.917C117.087 55.0793 117.306 54.2352 117.524 53.5236L118.197 51.3984H120.094L120.436 57.7922H119.031L118.928 55.3454Z" fill="#E63946"/>
<path d="M126.11 55.4218C126.11 57.12 124.906 57.8979 123.662 57.8979C122.306 57.8979 121.263 57.0061 121.263 55.5073C121.263 53.9989 122.249 53.0409 123.748 53.0409C125.161 53.0409 126.11 54.0179 126.11 55.4218ZM122.752 55.4694C122.752 56.2662 123.084 56.8639 123.701 56.8639C124.27 56.8639 124.621 56.3042 124.621 55.4601C124.621 54.7768 124.355 54.0752 123.701 54.0752C123.017 54.0748 122.752 54.7864 122.752 55.4694Z" fill="#E63946"/>
<path d="M127.002 54.6822C127.002 53.9989 126.993 53.553 126.964 53.1548H128.197L128.254 54.0082H128.292C128.529 53.3253 129.089 53.0409 129.545 53.0409C129.677 53.0409 129.744 53.0502 129.848 53.0692V54.4258C129.734 54.4068 129.62 54.3878 129.459 54.3878C128.928 54.3878 128.567 54.6722 128.472 55.1184C128.453 55.213 128.444 55.3269 128.444 55.4407V57.7933H127.002V54.6822Z" fill="#E63946"/>
<path d="M131.641 55.9332C131.679 56.5309 132.277 56.8153 132.95 56.8153C133.443 56.8153 133.842 56.749 134.231 56.6162L134.421 57.5932C133.946 57.7926 133.368 57.8875 132.742 57.8875C131.167 57.8875 130.266 56.9768 130.266 55.5253C130.266 54.3492 130.996 53.0492 132.609 53.0492C134.107 53.0492 134.677 54.216 134.677 55.3638C134.677 55.6102 134.648 55.8287 134.629 55.9329H131.641V55.9332ZM133.339 54.9466C133.339 54.5956 133.188 54.0075 132.524 54.0075C131.917 54.0075 131.67 54.5676 131.632 54.9466H133.339Z" fill="#E63946"/>
<path d="M142.191 57.6222C141.935 57.7454 141.328 57.8973 140.56 57.8973C138.35 57.8973 137.211 56.5124 137.211 54.6909C137.211 52.5088 138.767 51.3041 140.702 51.3041C141.451 51.3041 142.02 51.4466 142.276 51.5888L141.973 52.7269C141.688 52.6037 141.281 52.4899 140.759 52.4899C139.621 52.4899 138.729 53.1821 138.729 54.6053C138.729 55.886 139.487 56.6925 140.768 56.6925C141.214 56.6925 141.688 56.6073 141.982 56.4837L142.191 57.6222Z" fill="#457B9D"/>
<path d="M147.505 55.4218C147.505 57.12 146.3 57.8979 145.057 57.8979C143.7 57.8979 142.657 57.0061 142.657 55.5073C142.657 53.9989 143.644 53.0409 145.142 53.0409C146.556 53.0409 147.505 54.0179 147.505 55.4218ZM144.146 55.4694C144.146 56.2662 144.478 56.8639 145.095 56.8639C145.664 56.8639 146.015 56.3042 146.015 55.4601C146.015 54.7768 145.75 54.0752 145.095 54.0752C144.412 54.0748 144.146 54.7864 144.146 55.4694Z" fill="#457B9D"/>
<path d="M148.396 54.6338C148.396 54.0551 148.377 53.5716 148.358 53.154H149.61L149.677 53.7994H149.705C149.895 53.4957 150.36 53.0498 151.138 53.0498C152.087 53.0498 152.798 53.6855 152.798 55.0514V57.7929H151.356V55.2219C151.356 54.6245 151.147 54.2163 150.626 54.2163C150.228 54.2163 149.99 54.4913 149.886 54.757C149.848 54.8519 149.838 54.9848 149.838 55.1177V57.7926H148.396V54.6338Z" fill="#457B9D"/>
<path d="M154.848 53.1537L155.474 55.3071C155.588 55.7054 155.664 56.066 155.74 56.436H155.768C155.844 56.0567 155.92 55.7057 156.024 55.3071L156.622 53.1537H158.14L156.413 57.7926H154.971L153.283 53.1537H154.848Z" fill="#457B9D"/>
<path d="M159.772 55.9332C159.81 56.5309 160.408 56.8153 161.081 56.8153C161.574 56.8153 161.973 56.749 162.362 56.6162L162.552 57.5932C162.077 57.7926 161.499 57.8875 160.873 57.8875C159.298 57.8875 158.397 56.9768 158.397 55.5253C158.397 54.3492 159.127 53.0492 160.74 53.0492C162.238 53.0492 162.808 54.216 162.808 55.3638C162.808 55.6102 162.779 55.8287 162.76 55.9329H159.772V55.9332ZM161.47 54.9466C161.47 54.5956 161.318 54.0075 160.654 54.0075C160.047 54.0075 159.801 54.5676 159.762 54.9466H161.47Z" fill="#457B9D"/>
<path d="M163.671 54.6822C163.671 53.9989 163.662 53.553 163.634 53.1548H164.867L164.924 54.0082H164.962C165.199 53.3253 165.759 53.0409 166.214 53.0409C166.347 53.0409 166.413 53.0502 166.518 53.0692V54.4258C166.404 54.4068 166.29 54.3878 166.129 54.3878C165.597 54.3878 165.237 54.6722 165.142 55.1184C165.123 55.213 165.114 55.3269 165.114 55.4407V57.7933H163.671V54.6822Z" fill="#457B9D"/>
<path d="M167.267 56.5409C167.533 56.702 168.083 56.8822 168.51 56.8822C168.946 56.8822 169.126 56.74 169.126 56.5029C169.126 56.2562 168.984 56.1423 168.453 55.9621C167.485 55.6395 167.116 55.118 167.125 54.5676C167.125 53.6948 167.865 53.0402 169.013 53.0402C169.554 53.0402 170.028 53.1727 170.312 53.3152L170.066 54.3112C169.857 54.1973 169.449 54.0455 169.06 54.0455C168.709 54.0455 168.51 54.188 168.51 54.4154C168.51 54.6428 168.69 54.7567 169.259 54.9562C170.141 55.2595 170.502 55.7147 170.512 56.3887C170.512 57.2611 169.838 57.8968 168.51 57.8968C167.903 57.8968 167.362 57.7543 167.011 57.5648L167.267 56.5409Z" fill="#457B9D"/>
<path d="M173.007 51.9019V53.1542H174.041V54.2165H173.007V55.8957C173.007 56.4555 173.149 56.7112 173.576 56.7112C173.776 56.7112 173.87 56.7019 174.003 56.6736L174.012 57.7641C173.832 57.8307 173.481 57.8877 173.083 57.8877C172.618 57.8877 172.229 57.7265 171.992 57.4894C171.726 57.2144 171.593 56.7682 171.593 56.1138V54.2165H170.977V53.1542H171.593V52.2908L173.007 51.9019Z" fill="#457B9D"/>
<path d="M176.366 51.8639C176.366 52.2621 176.072 52.5848 175.588 52.5848C175.132 52.5848 174.838 52.2621 174.838 51.8639C174.838 51.4556 175.142 51.1429 175.607 51.1429C176.072 51.1429 176.356 51.4556 176.366 51.8639ZM174.876 57.7924V53.1535H176.318V57.7924H174.876Z" fill="#457B9D"/>
<path d="M182.058 55.4218C182.058 57.12 180.853 57.8979 179.61 57.8979C178.254 57.8979 177.21 57.0061 177.21 55.5073C177.21 53.9989 178.197 53.0409 179.696 53.0409C181.109 53.0409 182.058 54.0179 182.058 55.4218ZM178.7 55.4694C178.7 56.2662 179.032 56.8639 179.648 56.8639C180.217 56.8639 180.569 56.3042 180.569 55.4601C180.569 54.7768 180.303 54.0752 179.648 54.0752C178.965 54.0748 178.7 54.7864 178.7 55.4694Z" fill="#457B9D"/>
<path d="M182.95 54.6338C182.95 54.0551 182.931 53.5716 182.912 53.154H184.164L184.231 53.7994H184.259C184.449 53.4957 184.914 53.0498 185.692 53.0498C186.64 53.0498 187.352 53.6855 187.352 55.0514V57.7929H185.91V55.2219C185.91 54.6245 185.701 54.2163 185.18 54.2163C184.781 54.2163 184.544 54.4913 184.439 54.757C184.402 54.8519 184.392 54.9848 184.392 55.1177V57.7926H182.95V54.6338Z" fill="#457B9D"/>
<path d="M188.5 56.5409C188.766 56.702 189.316 56.8822 189.743 56.8822C190.179 56.8822 190.36 56.74 190.36 56.5029C190.36 56.2562 190.217 56.1423 189.686 55.9621C188.719 55.6395 188.349 55.118 188.358 54.5676C188.358 53.6948 189.098 53.0402 190.246 53.0402C190.787 53.0402 191.261 53.1727 191.545 53.3152L191.299 54.3112C191.09 54.1973 190.682 54.0455 190.293 54.0455C189.942 54.0455 189.743 54.188 189.743 54.4154C189.743 54.6428 189.923 54.7567 190.492 54.9562C191.374 55.2595 191.735 55.7147 191.745 56.3887C191.745 57.2611 191.071 57.8968 189.743 57.8968C189.136 57.8968 188.595 57.7543 188.244 57.5648L188.5 56.5409Z" fill="#457B9D"/>
<path d="M67.8582 38.1873L63.4627 42.5332V11.6674L67.8149 7.27197L82.206 36.0142L94.3717 11.6674L98.7732 7.27197V38.1873L94.3777 42.5332V16.0133L83.3155 38.1873L78.92 42.5332L67.8578 20.4084V38.1873H67.8582Z" fill="#E63946"/>
<path d="M106.823 7.27197V38.1381H122.281L117.875 42.5332H102.428V11.6674L106.823 7.27197Z" fill="#457B9D"/>
<path d="M130.331 38.1873L125.936 42.5332V11.6674L130.287 7.27197L144.679 36.0142L156.845 11.6674L161.246 7.27197V38.1873L156.851 42.5332V16.0133L145.788 38.1873L141.393 42.5332L130.331 20.4084V38.1873Z" fill="#E63946"/>
<path d="M192.951 35.8664L188.548 40.2615C186.107 41.7763 183.369 42.5332 180.335 42.5332C176.048 42.5332 172.403 41.0354 169.402 38.0392C166.4 35.0436 164.9 31.4053 164.9 27.1251C164.9 22.8778 166.4 19.2403 169.402 16.2111L173.755 11.8156C176.756 8.78674 180.417 7.27197 184.738 7.27197C187.772 7.27197 190.526 8.06216 193 9.64252L188.605 14.0376C186.135 12.4573 183.386 11.6671 180.357 11.6671C177.229 11.6671 174.398 12.5219 171.863 14.2304C170.151 16.7615 169.295 19.5872 169.295 22.7083C169.295 26.9809 170.801 30.6208 173.813 33.6274C176.826 36.6343 180.472 38.1377 184.753 38.1377C187.748 38.1381 190.482 37.3808 192.951 35.8664Z" fill="#457B9D"/>
<path d="M42.2047 8.14308C37.5951 6.49446 32.4251 7.21271 28.011 10.1117C24.6255 12.3381 21.4785 15.8931 19.343 19.8047C18.0786 17.9729 16.5725 16.1122 14.2439 15.1455C10.5851 13.6281 5.99547 14.8445 3.08581 18.1068C0.482503 21.0221 -0.561417 24.8831 0.291701 28.4334C1.14948 31.9994 3.42613 35.5288 6.7034 38.3728C7.45396 39.0245 8.59178 38.9445 9.24244 38.1937C9.89377 37.4424 9.80186 36.3835 9.06229 35.6543C6.50294 33.1289 4.91592 30.434 4.23296 27.5926C3.65522 25.1891 4.39546 22.5399 6.21358 20.5033C7.82324 18.6998 10.334 17.4192 12.8644 18.4714C14.6185 19.199 15.792 20.9568 17.0344 22.8186C17.414 23.387 17.7903 23.9494 18.1792 24.4802C18.5665 25.0096 19.2091 25.291 19.8618 25.2011C20.5125 25.1179 21.0652 24.6866 21.3056 24.0763C23.0012 19.7747 26.41 15.4732 29.9883 13.1203C33.4474 10.8483 37.4566 10.2692 40.9906 11.5326C50.7115 15.014 51.8107 27.7205 50.1784 35.4112C48.4652 43.4865 44.2642 48.797 37.337 52.3314C33.8323 54.1179 27.6807 55.0699 23.1427 54.8884C22.2756 54.8534 21.266 54.8135 20.2134 54.7182C20.2844 54.6766 20.3546 54.633 20.4255 54.587C21.8597 53.6753 22.6386 52.8398 23.2959 52.022C24.3495 50.3464 20.8997 49.2213 20.022 50.3351C19.6417 50.7277 19.1499 51.1329 18.4939 51.5502C17.1503 52.4053 15.6745 52.4992 12.7288 52.6137C11.951 52.644 11.2807 53.1715 11.0679 53.9204C10.8551 54.669 11.1481 55.4705 11.7938 55.9053C14.8949 57.9935 19.029 58.3252 22.9989 58.4857C23.5283 58.5066 24.0881 58.5173 24.6708 58.5173C29.1968 58.5173 35.1074 57.5093 38.973 55.5371C46.9305 51.4796 51.7475 45.3642 53.7001 36.1588C55.9708 25.4605 53.3415 12.1316 42.2047 8.14308Z" fill="url(#paint0_linear)"/>
<path d="M14.2891 6.51541C14.2891 9.59955 11.7917 12.0963 8.71022 12.0963C5.62974 12.0963 3.13232 9.59922 3.13232 6.51541C3.13199 3.43626 5.62974 0.938843 8.71022 0.938843C11.7914 0.938843 14.2891 3.43626 14.2891 6.51541Z" fill="#E63946"/>
<path d="M23.8379 48.9812C25.0877 48.9812 26.1009 47.968 26.1009 46.7182C26.1009 45.4684 25.0877 44.4552 23.8379 44.4552C22.5881 44.4552 21.5749 45.4684 21.5749 46.7182C21.5749 47.968 22.5881 48.9812 23.8379 48.9812Z" fill="url(#paint1_linear)"/>
<path d="M22.0277 42.3839C22.0277 43.3766 21.2232 44.1807 20.2312 44.1807C19.2389 44.1807 18.4344 43.3769 18.4344 42.3839C18.4344 41.3926 19.2389 40.5878 20.2312 40.5878C21.2235 40.5878 22.0277 41.3926 22.0277 42.3839Z" fill="url(#paint2_linear)"/>
<path d="M17.1511 43.8751C17.1511 44.7316 16.4568 45.4269 15.6007 45.4269C14.7442 45.4269 14.0499 44.7316 14.0499 43.8751C14.0499 43.0197 14.7442 42.3251 15.6007 42.3251C16.4568 42.3251 17.1511 43.0197 17.1511 43.8751Z" fill="url(#paint3_linear)"/>
<path d="M18.7423 25.002C18.1019 24.682 13.7671 18.3432 9.07892 20.8446C4.30053 23.3943 4.69612 29.5696 9.06227 35.654C9.06227 35.654 10.6586 37.4215 8.89944 38.4997C6.24152 40.1284 0.216753 33.7629 0.00463867 26.2637C0.941004 15.6117 9.70827 13.9817 12.7578 15.6284C17.0963 17.9713 18.5341 23.9724 18.66 24.4972C18.718 24.7409 18.7423 25.002 18.7423 25.002Z" fill="url(#paint4_linear)"/>
<path d="M20.9503 24.641C20.9503 24.641 20.1471 25.6603 18.7425 25.0016C17.7319 24.5278 16.8265 22.9354 16.0973 22.4013C15.3684 21.8668 18.3273 23.2957 18.3273 23.2957C18.3273 23.2957 19.4245 25.3646 20.9503 24.641Z" fill="url(#paint5_linear)"/>
<defs>
<linearGradient id="paint0_linear" x1="2.94795" y1="13.7836" x2="35.0191" y2="37.5029" gradientUnits="userSpaceOnUse">
<stop stop-color="#E63946"/>
<stop offset="1" stop-color="#457B9D"/>
</linearGradient>
<linearGradient id="paint1_linear" x1="9.61639" y1="43.9475" x2="22.4783" y2="46.453" gradientUnits="userSpaceOnUse">
<stop stop-color="#E63946"/>
<stop offset="1" stop-color="#457B9D"/>
</linearGradient>
<linearGradient id="paint2_linear" x1="10.2977" y1="40.449" x2="23.1596" y2="42.9546" gradientUnits="userSpaceOnUse">
<stop stop-color="#E63946"/>
<stop offset="1" stop-color="#457B9D"/>
</linearGradient>
<linearGradient id="paint3_linear" x1="9.84884" y1="42.7553" x2="22.7107" y2="45.2609" gradientUnits="userSpaceOnUse">
<stop stop-color="#E63946"/>
<stop offset="1" stop-color="#457B9D"/>
</linearGradient>
<linearGradient id="paint4_linear" x1="12.801" y1="27.6003" x2="25.6629" y2="30.1058" gradientUnits="userSpaceOnUse">
<stop stop-color="#E63946"/>
<stop offset="1" stop-color="#457B9D"/>
</linearGradient>
<linearGradient id="paint5_linear" x1="13.7042" y1="22.9647" x2="26.566" y2="25.4703" gradientUnits="userSpaceOnUse">
<stop stop-color="#E63946"/>
<stop offset="1" stop-color="#457B9D"/>
</linearGradient>
</defs>
</svg>
