<svg width="251" height="75" viewBox="0 0 251 75" fill="none" xmlns="http://www.w3.org/2000/svg">
<path d="M89.0507 70.8687C89.0138 69.8676 88.9766 68.6566 88.9766 67.4456H88.9519C88.6804 68.5083 88.3352 69.6945 88.0143 70.6709L87.0027 73.9205H85.5347L84.6465 70.7078C84.3749 69.7197 84.1038 68.533 83.8938 67.4456H83.8691C83.8323 68.5703 83.7829 69.8555 83.7336 70.893L83.5733 74.0562H81.8337L82.3642 65.728H84.8686L85.6828 68.5083C85.9539 69.472 86.2007 70.51 86.386 71.4859H86.4354C86.6576 70.5221 86.9412 69.4226 87.2249 68.4957L88.1005 65.7275H90.5681L91.012 74.0558H89.1862L89.0507 70.8687Z" fill="white"/>
<path fill-rule="evenodd" clip-rule="evenodd" d="M95.2082 74.1923C96.8243 74.1923 98.3911 73.1791 98.3911 70.967C98.3911 69.1383 97.1573 67.8657 95.319 67.8657C93.3698 67.8657 92.0867 69.1136 92.0867 71.0784C92.0867 73.0307 93.4439 74.1923 95.2082 74.1923ZM95.2575 72.8455C94.4555 72.8455 94.0237 72.0669 94.0237 71.029C94.0237 70.1394 94.3693 69.2125 95.2575 69.2129C96.1085 69.2129 96.4541 70.1268 96.4541 71.0169C96.4541 72.1164 95.9976 72.8455 95.2575 72.8455Z" fill="white"/>
<path d="M99.5518 70.0036C99.5518 69.1136 99.5397 68.5328 99.5024 68.0141H101.106L101.18 69.1257H101.229C101.538 68.2361 102.266 67.8657 102.858 67.8657C103.031 67.8657 103.117 67.8779 103.253 67.9026V69.6697C103.105 69.6449 102.957 69.6202 102.747 69.6202C102.056 69.6202 101.587 69.9906 101.464 70.5718C101.439 70.695 101.427 70.8434 101.427 70.9917V74.0561H99.5518V70.0036Z" fill="white"/>
<path fill-rule="evenodd" clip-rule="evenodd" d="M107.288 72.7831C106.412 72.7831 105.635 72.4126 105.585 71.6341V71.6336H109.471C109.497 71.4979 109.533 71.2133 109.533 70.8924C109.533 69.3973 108.793 67.8774 106.844 67.8774C104.747 67.8774 103.797 69.5708 103.797 71.1027C103.797 72.9934 104.969 74.1797 107.017 74.1797C107.831 74.1797 108.584 74.0561 109.2 73.7963L108.953 72.5237C108.448 72.6967 107.929 72.7831 107.288 72.7831ZM106.733 69.1257C107.596 69.1257 107.794 69.8917 107.794 70.3489H105.573C105.622 69.8553 105.943 69.1257 106.733 69.1257Z" fill="white"/>
<path d="M113.223 65.728H115.098V72.4749H118.405V74.0563H113.223V65.728Z" fill="white"/>
<path fill-rule="evenodd" clip-rule="evenodd" d="M122.489 72.7831C121.613 72.7831 120.836 72.4126 120.786 71.6341V71.6336H124.673C124.698 71.4979 124.735 71.2133 124.735 70.8924C124.735 69.3973 123.994 67.8774 122.045 67.8774C119.948 67.8774 118.998 69.5708 118.998 71.1027C118.998 72.9934 120.17 74.1797 122.218 74.1797C123.032 74.1797 123.785 74.0561 124.402 73.7963L124.155 72.5237C123.649 72.6967 123.13 72.7831 122.489 72.7831ZM121.934 69.1257C122.797 69.1257 122.995 69.8917 122.995 70.3489H120.774C120.824 69.8553 121.144 69.1257 121.934 69.1257Z" fill="white"/>
<path fill-rule="evenodd" clip-rule="evenodd" d="M130.978 74.0561C130.904 73.7225 130.879 73.1669 130.879 72.5983V70.4851C130.879 69.0516 130.25 67.8657 128.239 67.8657C127.141 67.8657 126.314 68.1745 125.895 68.4092L126.24 69.6202C126.635 69.373 127.289 69.163 127.906 69.163C128.831 69.163 129.004 69.6198 129.004 69.9538V70.0279C126.87 70.0279 125.463 70.7692 125.463 72.3385C125.463 73.3022 126.191 74.1918 127.413 74.1918C128.128 74.1918 128.745 73.932 129.14 73.4506H129.176L129.288 74.0561H130.978ZM127.314 72.1533C127.314 71.4368 128.078 71.2017 129.065 71.2016V71.8561C129.065 71.9676 129.053 72.0787 129.028 72.1775C128.905 72.5605 128.51 72.8694 128.054 72.8694C127.634 72.8694 127.314 72.6347 127.314 72.1533Z" fill="white"/>
<path fill-rule="evenodd" clip-rule="evenodd" d="M138.22 72.2521V65.2831V65.2827H136.345V68.5449H136.32C136.049 68.1376 135.481 67.8656 134.729 67.8656C133.285 67.8656 132.015 69.0519 132.027 71.0909C132.027 72.9691 133.174 74.1922 134.606 74.1922C135.383 74.1922 136.123 73.8461 136.493 73.179H136.53L136.604 74.056H138.27C138.245 73.6483 138.22 72.9313 138.22 72.2521ZM136.32 70.2256C136.345 70.3367 136.345 70.4724 136.345 70.5718V71.3629C136.345 71.5112 136.333 71.6596 136.308 71.7953C136.197 72.3267 135.753 72.6971 135.21 72.6971C134.433 72.6971 133.927 72.0543 133.927 71.0289C133.927 70.0777 134.359 69.3113 135.222 69.3113C135.802 69.3113 136.209 69.7312 136.32 70.2256Z" fill="white"/>
<path d="M139.714 72.4252C140.06 72.6351 140.775 72.8697 141.33 72.8697C141.898 72.8697 142.132 72.6845 142.132 72.3757C142.132 72.0543 141.947 71.906 141.256 71.6713C139.998 71.251 139.517 70.5718 139.529 69.8548C139.529 68.718 140.492 67.8652 141.984 67.8652C142.688 67.8652 143.304 68.0379 143.674 68.2235L143.354 69.5208C143.082 69.3725 142.552 69.1747 142.046 69.1747C141.589 69.1747 141.331 69.3603 141.331 69.6566C141.331 69.9528 141.565 70.1012 142.305 70.361C143.452 70.7561 143.921 71.349 143.934 72.2269C143.934 73.3633 143.058 74.1914 141.331 74.1914C140.541 74.1914 139.838 74.0057 139.381 73.7589L139.714 72.4252Z" fill="white"/>
<path d="M154.668 70.8687C154.631 69.8676 154.593 68.6566 154.593 67.4456H154.569C154.297 68.5083 153.952 69.6945 153.631 70.6709L152.62 73.9205H151.151L150.263 70.7078C149.991 69.7197 149.72 68.533 149.51 67.4456H149.486C149.449 68.5703 149.399 69.8555 149.35 70.893L149.19 74.0562H147.45L147.981 65.728H150.485L151.299 68.5083C151.571 69.472 151.818 70.51 152.003 71.4859H152.052C152.274 70.5221 152.558 69.4226 152.841 68.4957L153.717 65.7275H156.184L156.628 74.0558H154.802L154.668 70.8687Z" fill="white"/>
<path fill-rule="evenodd" clip-rule="evenodd" d="M160.825 74.1923C162.442 74.1923 164.008 73.1791 164.008 70.967C164.008 69.1383 162.774 67.8657 160.936 67.8657C158.987 67.8657 157.704 69.1136 157.704 71.0784C157.704 73.0307 159.061 74.1923 160.825 74.1923ZM160.875 72.8455C160.073 72.8455 159.641 72.0669 159.641 71.029C159.641 70.1394 159.986 69.2125 160.875 69.2129C161.726 69.2129 162.072 70.1268 162.072 71.0169C162.072 72.1164 161.615 72.8455 160.875 72.8455Z" fill="white"/>
<path d="M165.168 70.0036C165.168 69.1136 165.156 68.5328 165.119 68.0141H166.723L166.797 69.1257H166.846C167.155 68.2361 167.883 67.8657 168.475 67.8657C168.648 67.8657 168.734 67.8779 168.87 67.9026V69.6697C168.722 69.6449 168.573 69.6202 168.364 69.6202C167.673 69.6202 167.204 69.9906 167.081 70.5718C167.056 70.695 167.044 70.8434 167.044 70.9917V74.0561H165.168V70.0036Z" fill="white"/>
<path fill-rule="evenodd" clip-rule="evenodd" d="M172.904 72.7831C172.028 72.7831 171.251 72.4126 171.202 71.6341V71.6336H175.088C175.113 71.4979 175.15 71.2133 175.15 70.8924C175.15 69.3973 174.409 67.8774 172.46 67.8774C170.363 67.8774 169.413 69.5708 169.413 71.1027C169.413 72.9934 170.585 74.1797 172.633 74.1797C173.447 74.1797 174.2 74.0561 174.817 73.7963L174.57 72.5237C174.064 72.6967 173.546 72.7831 172.904 72.7831ZM172.35 69.1257C173.213 69.1257 173.41 69.8917 173.41 70.3489H171.189C171.239 69.8553 171.56 69.1257 172.35 69.1257Z" fill="white"/>
<path d="M184.922 73.8343C184.589 73.9948 183.8 74.1926 182.801 74.1926C179.926 74.1926 178.445 72.3886 178.445 70.0161C178.445 67.1738 180.469 65.6045 182.985 65.6045C183.96 65.6045 184.7 65.7901 185.033 65.9753L184.638 67.4579C184.268 67.2974 183.738 67.149 183.059 67.149C181.579 67.149 180.419 68.0508 180.419 69.9046C180.419 71.5728 181.406 72.6233 183.071 72.6233C183.652 72.6233 184.268 72.5123 184.65 72.3513L184.922 73.8343Z" fill="white"/>
<path fill-rule="evenodd" clip-rule="evenodd" d="M188.649 74.1923C190.265 74.1923 191.832 73.1791 191.832 70.967C191.832 69.1383 190.598 67.8657 188.76 67.8657C186.811 67.8657 185.528 69.1136 185.528 71.0784C185.528 73.0307 186.885 74.1923 188.649 74.1923ZM188.699 72.8455C187.897 72.8455 187.465 72.0669 187.465 71.029C187.465 70.1394 187.81 69.2125 188.699 69.2129C189.55 69.2129 189.896 70.1268 189.896 71.0169C189.896 72.1164 189.439 72.8455 188.699 72.8455Z" fill="white"/>
<path d="M192.992 69.9417C192.992 69.1879 192.967 68.5581 192.943 68.0142H194.571L194.658 68.8548H194.695C194.941 68.4592 195.546 67.8784 196.558 67.8784C197.791 67.8784 198.716 68.7064 198.716 70.4856V74.0566H196.841V70.7077C196.841 69.9296 196.57 69.3978 195.892 69.3978C195.374 69.3978 195.065 69.7561 194.929 70.1022C194.88 70.2258 194.867 70.3989 194.867 70.572V74.0562H192.992V69.9417Z" fill="white"/>
<path d="M201.382 68.0142L202.197 70.8192C202.345 71.3379 202.443 71.8077 202.542 72.2896H202.579C202.678 71.7955 202.776 71.3384 202.912 70.8192L203.69 68.0142H205.664L203.418 74.0566H201.543L199.347 68.0142H201.382Z" fill="white"/>
<path fill-rule="evenodd" clip-rule="evenodd" d="M209.489 72.7831C208.613 72.7831 207.836 72.4126 207.787 71.6341V71.6336H211.673C211.698 71.4979 211.735 71.2133 211.735 70.8924C211.735 69.3973 210.994 67.8774 209.045 67.8774C206.948 67.8774 205.998 69.5708 205.998 71.1027C205.998 72.9934 207.17 74.1797 209.218 74.1797C210.032 74.1797 210.785 74.0561 211.402 73.7963L211.155 72.5237C210.649 72.6967 210.131 72.7831 209.489 72.7831ZM208.934 69.1257C209.798 69.1257 209.995 69.8917 209.995 70.3489H207.774C207.824 69.8553 208.145 69.1257 208.934 69.1257Z" fill="white"/>
<path d="M212.858 70.0036C212.858 69.1136 212.845 68.5328 212.809 68.0141H214.412L214.486 69.1257H214.536C214.844 68.2361 215.572 67.8657 216.164 67.8657C216.337 67.8657 216.423 67.8779 216.559 67.9026V69.6697C216.411 69.6449 216.263 69.6202 216.053 69.6202C215.362 69.6202 214.893 69.9906 214.77 70.5718C214.745 70.695 214.733 70.8434 214.733 70.9917V74.0561H212.858V70.0036Z" fill="white"/>
<path d="M217.534 72.4252C217.879 72.6351 218.595 72.8697 219.15 72.8697C219.718 72.8697 219.952 72.6845 219.952 72.3757C219.952 72.0543 219.767 71.906 219.076 71.6713C217.818 71.251 217.337 70.5718 217.349 69.8548C217.349 68.718 218.312 67.8652 219.804 67.8652C220.508 67.8652 221.124 68.0379 221.494 68.2235L221.174 69.5208C220.902 69.3725 220.372 69.1747 219.866 69.1747C219.409 69.1747 219.15 69.3603 219.15 69.6566C219.15 69.9528 219.385 70.1012 220.125 70.361C221.272 70.7561 221.741 71.349 221.753 72.2269C221.753 73.3633 220.878 74.1914 219.15 74.1914C218.361 74.1914 217.658 74.0057 217.201 73.7589L217.534 72.4252Z" fill="white"/>
<path d="M224.999 66.3828V68.0141H226.343V69.3978H224.999V71.5851C224.999 72.3142 225.184 72.6473 225.739 72.6473C225.998 72.6473 226.121 72.6352 226.294 72.5983L226.306 74.0188C226.072 74.1056 225.615 74.1798 225.097 74.1798C224.493 74.1798 223.987 73.9698 223.678 73.661C223.333 73.3027 223.16 72.7215 223.16 71.8692V69.3978H222.358V68.0141H223.16V66.8894L224.999 66.3828Z" fill="white"/>
<path fill-rule="evenodd" clip-rule="evenodd" d="M228.355 67.2731C228.984 67.2731 229.367 66.8528 229.367 66.3341C229.354 65.8023 228.984 65.395 228.38 65.395C227.775 65.395 227.381 65.8023 227.381 66.3341C227.381 66.8528 227.763 67.2731 228.355 67.2731ZM227.43 68.014V74.0564H229.305V68.014H227.43Z" fill="white"/>
<path fill-rule="evenodd" clip-rule="evenodd" d="M233.586 74.1923C235.202 74.1923 236.769 73.1791 236.769 70.967C236.769 69.1383 235.536 67.8657 233.697 67.8657C231.748 67.8657 230.465 69.1136 230.465 71.0784C230.465 73.0307 231.822 74.1923 233.586 74.1923ZM233.636 72.8455C232.834 72.8455 232.402 72.0669 232.402 71.029C232.402 70.1394 232.747 69.2125 233.636 69.2129C234.487 69.2129 234.833 70.1268 234.833 71.0169C234.833 72.1164 234.376 72.8455 233.636 72.8455Z" fill="white"/>
<path d="M237.929 69.9417C237.929 69.1879 237.905 68.5581 237.88 68.0142H239.509L239.595 68.8548H239.632C239.879 68.4592 240.483 67.8784 241.495 67.8784C242.729 67.8784 243.654 68.7064 243.654 70.4856V74.0566H241.779V70.7077C241.779 69.9296 241.507 69.3978 240.829 69.3978C240.311 69.3978 240.002 69.7561 239.866 70.1022C239.817 70.2258 239.805 70.3989 239.805 70.572V74.0562H237.929V69.9417Z" fill="white"/>
<path d="M245.148 72.4252C245.493 72.6351 246.209 72.8697 246.764 72.8697C247.331 72.8697 247.566 72.6845 247.566 72.3757C247.566 72.0543 247.38 71.906 246.69 71.6713C245.432 71.251 244.95 70.5718 244.963 69.8548C244.963 68.718 245.925 67.8652 247.418 67.8652C248.121 67.8652 248.738 68.0379 249.108 68.2235L248.787 69.5208C248.516 69.3725 247.985 69.1747 247.48 69.1747C247.023 69.1747 246.764 69.3603 246.764 69.6566C246.764 69.9528 246.998 70.1012 247.739 70.361C248.886 70.7561 249.355 71.349 249.367 72.2269C249.367 73.3633 248.492 74.1914 246.764 74.1914C245.975 74.1914 245.271 74.0057 244.815 73.7589L245.148 72.4252Z" fill="white"/>
<path d="M88.2508 48.519L82.5344 54.1797V13.9749L88.1945 8.24951L106.91 45.6884L122.732 13.9749L128.456 8.24951V48.519L122.74 54.1797V19.6357L108.353 48.519L102.637 54.1797L88.2504 25.3606V48.519H88.2508Z" fill="white"/>
<path d="M138.925 8.24951V48.4548H159.028L153.298 54.1797H133.209V13.9749L138.925 8.24951Z" fill="white"/>
<path d="M169.497 48.519L163.781 54.1797V13.9749L169.441 8.24951L188.157 45.6884L203.979 13.9749L209.703 8.24951V48.519L203.987 54.1797V19.6357L189.6 48.519L183.884 54.1797L169.497 25.3606V48.519Z" fill="white"/>
<path d="M250.936 45.4958L245.21 51.2207C242.036 53.1938 238.475 54.1797 234.529 54.1797C228.953 54.1797 224.214 52.2287 220.31 48.3259C216.406 44.424 214.455 39.6849 214.455 34.1096C214.455 28.5772 216.406 23.8391 220.31 19.8933L225.972 14.1679C229.875 10.2226 234.635 8.24951 240.255 8.24951C244.201 8.24951 247.782 9.27878 251 11.3373L245.284 17.0623C242.072 15.0037 238.497 13.9745 234.558 13.9745C230.489 13.9745 226.808 15.0879 223.511 17.3134C221.284 20.6103 220.171 24.291 220.171 28.3565C220.171 33.9218 222.13 38.663 226.048 42.5793C229.965 46.496 234.707 48.4543 240.274 48.4543C244.17 48.4548 247.725 47.4684 250.936 45.4958Z" fill="white"/>
<path d="M54.8879 9.38376C48.8931 7.23631 42.1695 8.17189 36.4288 11.948C32.0259 14.848 27.9331 19.4787 25.1559 24.5738C23.5116 22.1878 21.5529 19.7641 18.5245 18.5049C13.7661 16.5284 7.79721 18.1128 4.01315 22.3622C0.627504 26.1596 -0.730133 31.1888 0.379362 35.8134C1.49492 40.4583 4.45574 45.0555 8.71789 48.7601C9.69401 49.609 11.1738 49.5049 12.02 48.5268C12.867 47.5483 12.7475 46.169 11.7857 45.2191C8.45719 41.9296 6.39324 38.4193 5.50504 34.7182C4.75368 31.5874 5.71637 28.1366 8.08087 25.4838C10.1743 23.1347 13.4395 21.4665 16.7303 22.8371C19.0117 23.7849 20.5378 26.0746 22.1535 28.4996C22.6472 29.24 23.1366 29.9726 23.6424 30.664C24.146 31.3536 24.9818 31.7202 25.8306 31.603C26.6768 31.4946 27.3957 30.9329 27.7084 30.1379C29.9135 24.5348 34.3467 18.9317 39.0003 15.8669C43.499 12.9075 48.713 12.1532 53.309 13.7988C65.9513 18.3336 67.3808 34.8847 65.2579 44.9024C63.0299 55.4211 57.5664 62.3384 48.5575 66.9421C43.9996 69.2692 35.9993 70.5092 30.0975 70.2728C28.9699 70.2273 27.6568 70.1753 26.2879 70.0512C26.3802 69.997 26.4715 69.9402 26.5638 69.8803C28.429 68.6927 29.4419 67.6045 30.2967 66.5392C31.6669 64.3566 27.1805 62.891 26.0389 64.3419C25.5444 64.8532 24.9047 65.3811 24.0516 65.9246C22.3042 67.0384 20.3849 67.1608 16.5541 67.31C15.5425 67.3494 14.6707 68.0365 14.394 69.012C14.1173 69.987 14.4984 71.031 15.3381 71.5975C19.3711 74.3175 24.7475 74.7495 29.9105 74.9586C30.599 74.9859 31.327 74.9998 32.0848 74.9998C37.971 74.9998 45.6577 73.6868 50.6851 71.1178C61.0339 65.8326 67.2985 57.867 69.838 45.8762C72.791 31.9409 69.3716 14.5791 54.8879 9.38376Z" fill="white"/>
<path d="M18.5833 7.26387C18.5833 11.2812 15.3354 14.5334 11.3279 14.5334C7.32167 14.5334 4.07373 11.2808 4.07373 7.26387C4.0733 3.25306 7.32167 0 11.3279 0C15.335 0 18.5833 3.25306 18.5833 7.26387Z" fill="white"/>
<ellipse cx="31.0017" cy="59.6303" rx="2.94306" ry="2.94771" fill="white"/>
<path d="M28.6477 53.9856C28.6477 55.2786 27.6015 56.3261 26.3114 56.3261C25.0209 56.3261 23.9746 55.279 23.9746 53.9856C23.9746 52.6943 25.0209 51.646 26.3114 51.646C27.6019 51.646 28.6477 52.6943 28.6477 53.9856Z" fill="white"/>
<path d="M22.305 55.9273C22.305 57.0429 21.4021 57.9485 20.2887 57.9485C19.1749 57.9485 18.272 57.0429 18.272 55.9273C18.272 54.813 19.1749 53.9082 20.2887 53.9082C21.4021 53.9082 22.305 54.813 22.305 55.9273Z" fill="white"/>
<path d="M24.3747 31.3437C23.5419 30.9269 17.9044 22.6702 11.8074 25.9284C5.59298 29.2496 6.10746 37.2933 11.7857 45.2186C11.7857 45.2186 13.8618 47.5209 11.5739 48.9254C8.11728 51.0468 0.281961 42.7554 0.00610352 32.9871C1.22386 19.1122 12.6258 16.989 16.5918 19.1339C22.2341 22.1857 24.104 30.0026 24.2677 30.6861C24.3431 31.0036 24.3747 31.3437 24.3747 31.3437Z" fill="white"/>
<path d="M27.2458 30.874C27.2458 30.874 26.2013 32.2017 24.3746 31.3438C23.0603 30.7265 21.8828 28.6524 20.9344 27.9567C19.9865 27.2605 23.8346 29.1217 23.8346 29.1217C23.8346 29.1217 25.2615 31.8165 27.2458 30.874Z" fill="white"/>
</svg>
